<?xml version="1.0" standalone="no"?>
<!DOCTYPE svg PUBLIC "-//W3C//DTD SVG 20010904//EN"
 "http://www.w3.org/TR/2001/REC-SVG-20010904/DTD/svg10.dtd">
<svg version="1.0" xmlns="http://www.w3.org/2000/svg"
 width="260.000000pt" height="260.000000pt" viewBox="0 0 260.000000 260.000000"
 preserveAspectRatio="xMidYMid meet">
<metadata>
Created by potrace 1.14, written by Peter Selinger 2001-2017
</metadata>
<g transform="translate(0.000000,260.000000) scale(0.100000,-0.100000)"
fill="#000000" stroke="none">
<path d="M1115 2270 c-396 -83 -700 -390 -780 -787 -21 -106 -15 -310 13 -415
44 -162 131 -325 235 -436 35 -37 87 -82 174 -152 31 -25 173 -93 238 -115
216 -70 430 -65 653 16 232 84 453 298 551 534 54 128 73 218 77 365 8 289
-83 519 -286 720 -134 134 -291 218 -490 265 -105 24 -284 27 -385 5z"/>
</g>
</svg>
